<svg width="158" height="141" xmlns="http://www.w3.org/2000/svg" xmlns:xlink="http://www.w3.org/1999/xlink">
 <!-- <style type="text/css">
		.graph_blue{fill:#ffffff;}
		.graph_orange{fill:#ffffff;}
		.graph_green{fill:#ffffff;}
		.graph_white{fill:#ffffff;}
		.graph_text{fill:#ffffff;}
		</style> -->
 <defs>
  <linearGradient y2="1" y1="0" x2="0" x1="0" id="gradient_blue">
   <stop stop-color="#ffffff" offset="0%"/>
   <stop stop-color="#ffffff" offset="100%"/>
  </linearGradient>
  <linearGradient y2="1" y1="0" x2="0" x1="0" id="gradient_orange">
   <stop stop-color="#ffffff" offset="0%"/>
   <stop stop-color="#ffffff" offset="100%"/>
  </linearGradient>
  <linearGradient y2="1" y1="0" x2="0" x1="0" id="gradient_green">
   <stop stop-color="#ffffff" offset="0%"/>
   <stop stop-color="#ffffff" offset="100%"/>
  </linearGradient>
 </defs>
 <defs>
  <symbol id="graph_blue">
   <path id="svg_7" d="m33.1,10.9c-7.7,-5.5 -14.6,-8.5 -18.6,-9.7c-2.5,-0.8 -4.4,-0.4 -5.6,1.3c-1.5,2.1 -2,10.9 -2.1,15.1c-0.1,4.6 0.1,9.3 0.7,13.1c0.8,4.1 4.3,4.4 7.6,3.4c8.1,-2.3 16.4,-8.9 21,-13.3c3.9,-3.6 2.6,-5.9 -3,-9.9z"/>
  </symbol>
  <symbol id="graph_orange">
   <path id="svg_8" d="m7.1,15.6c0,-6 0.6,-9.2 1.1,-10.9c-2.1,-0.5 -4,-0.4 -5,1c-1.2,1.7 -2,8.3 -2,11.6c0.1,3.6 0.4,7.2 0.9,10.2c0.8,3.4 2.5,3.7 5.4,3.1c-0.3,-2.3 -0.5,-6.6 -0.4,-15z"/>
  </symbol>
  <symbol id="graph_green">
   <path id="svg_9" d="m26.5,12.7c-11.2,-6.7 -18.5,-8.3 -18.4,-8.3c-1.1,3.8 -1.5,10.1 -1.5,13.2c0,4.3 0.2,9.2 0.8,12.9c0,0 10.3,-1.1 21.8,-10.1c3.5,-2.7 1.5,-5.1 -2.7,-7.7z"/>
  </symbol>
  <symbol id="graph_white">
   <path id="svg_10" d="m11.176,12.046c0,0 -0.35,0.55 -0.35,5.381c0,4.841 0.35,5.431 0.35,5.431c0.12,0.6 0.37,0.789 1.01,0.639c0,0 1.07,-0.17 5.37,-2.369c4.3,-2.211 5.02,-3.03 5.02,-3.03c0.46,-0.471 0.58,-0.782 0,-1.281c0,0 -1.18,-1.1 -5.02,-3.1c-3.8,-1.98 -5.37,-2.31 -5.37,-2.31c-0.53,-0.151 -0.87,0.019 -1.01,0.639z"/>
  </symbol>
  <symbol id="graph_text_small">
   <path id="svg_12" d="m121.714,13.21l0.31,-0.4l-2.08,0l-1.949,2.52l0.949,-4.6l3.5,0l0.32,-1.38l-3.699,0l0.449,-2.1l3.551,0l0.049,-0.2l0.271,-1.24l-3.56,0l0.58,-2.8l-1.701,0l-1.33,6.34l-1.889,0l1.039,-4.91l-1.66,0l-1.039,4.91l-2.58,0l-0.32,1.38l6.33,0l-1.41,6.52l0.33,0l0.311,0c-1.391,1.771 -2.881,2.78 -4.051,3.36c-0.63,0.31 -1.17,0.49 -1.55,0.6c-0.37,0.1 -0.58,0.12 -0.58,0.12l-0.19,0.03l-0.289,1.479l0.319,0c0.05,0 4.57,-0.09 8.5,-5.54c1.228,-1.699 3.058,-4.079 3.069,-4.089zm2.069,-9.5l-0.279,1.35l4.609,0c-0.64,1.24 -1.35,2.26 -1.67,2.49c-0.34,0.12 -0.709,0.17 -1.05,0.32l-0.01,-0.24l-1.56,0l-2.34,10.43l1.639,0l0.041,-0.199l1.82,-8.19c0.289,-0.31 0.569,-0.5 0.81,-0.59c0.22,-0.09 0.909,-0.17 1.489,-0.16l0.09,0l2.66,0c0.541,0.03 0.551,0.16 0.59,0.45c0,0.08 -0.01,0.16 -0.029,0.26l-1.79,8.471l1.64,0l1.75,-8.141c0.09,-0.33 0.141,-0.64 0.141,-0.93c0.01,-0.48 -0.16,-0.9 -0.5,-1.16c-0.33,-0.26 -0.78,-0.37 -1.311,-0.37l-2.029,0c0.14,-0.19 0.289,-0.43 0.459,-0.7c0.301,-0.5 0.611,-1.1 0.92,-1.74l4.191,0l0.039,-0.21l0.24,-1.14l-10.56,0l0,-0.001zm-27.929,10.6l0.08,0.08l1.78,-0.02l-0.3,-0.4c0,0 -0.25,-0.34 -0.561,-0.85c-0.3,-0.52 -0.66,-1.21 -0.859,-1.88l-0.051,-0.2l-0.56,0.03l2.149,-2.37c-0.01,-0.02 0.881,-0.77 0.92,-1.58c0,-0.26 -0.139,-0.55 -0.43,-0.7c-0.279,-0.16 -0.66,-0.24 -1.209,-0.24l-5.82,0l-0.291,1.43l5.641,0l-6.439,6.86l-0.711,2.86l3.82,-3.9l-2.141,9.48l1.74,0l0.041,-0.2l2.219,-9.96c0.491,1.11 0.962,1.54 0.982,1.56zm34.31,6.919c-0.62,-0.549 -2.021,-1.989 -2.99,-4.62l-0.07,-0.17l-0.24,0l1.431,-6.36l-1.72,0l-1.431,6.17c-0.021,0.08 -0.159,0.48 -0.5,1.05c-0.38,0.641 -1.03,1.48 -2.05,2.27c-1.01,0.771 -1.96,1.201 -2.65,1.44c-0.699,0.23 -1.119,0.271 -1.119,0.271l-0.181,0.02l-0.47,1.59l0.37,-0.01c0.03,-0.01 4.85,-0.23 7.5,-4.63c1.84,3.819 3.64,4.56 3.7,4.58l0.22,0.09l0.72,-1.3l-0.189,-0.13c-0.001,0 -0.122,-0.08 -0.331,-0.261zm-26.68,-0.119l0.01,-0.12l1.479,-7.61l-0.71,0l1.49,-7.27l-1.76,0l-1.49,7.49c-0.051,0.13 -0.35,0.97 -0.96,2.03c-0.65,1.16 -1.66,2.58 -3.011,3.6c-1.289,0.961 -2.319,1.511 -3.029,1.811c-0.35,0.15 -0.62,0.25 -0.801,0.3c-0.18,0.05 -0.26,0.06 -0.26,0.06l-0.16,0.031l-0.458,1.568l0.41,-0.06c0.029,-0.01 5.039,-0.771 8.149,-5.24l-0.71,3.35c-0.051,0.23 -0.07,0.43 -0.07,0.62c0,0.38 0.1,0.71 0.37,0.931c0.271,0.219 0.63,0.299 1.08,0.299l5.649,0l0.041,-0.199l0.289,-1.24l-4.969,0c-0.469,-0.021 -0.569,-0.11 -0.579,-0.351zm-3.951,-4.95l0.041,-0.2l2.319,-10.25c0.511,-0.5 1.04,-0.73 1.65,-0.73l3.76,0l0.101,0c0.369,-0.01 0.6,0.07 0.729,0.17s0.2,0.23 0.2,0.48c0,0.12 -0.02,0.26 -0.061,0.42l-2.289,10.11l1.729,0l2.3,-10.25c0.051,-0.22 0.09,-0.44 0.09,-0.65c0.01,-0.53 -0.24,-0.99 -0.699,-1.25c-0.451,-0.27 -1.07,-0.39 -1.851,-0.39l-0.2,0l-3.5,0l-0.35,0c-0.53,0.01 -0.98,0.01 -1.33,0.17l-0.02,-0.21l-1.551,0l-2.8,12.58l1.732,0zm-3.459,-10.73l0.539,-2.43l-1.569,0l-0.58,2.63l1.569,0l0.041,-0.2zm19.53,6.64l0.07,-0.31l-1.7,0l-0.05,0.18c-0.45,1.55 -1.29,2.84 -2.02,3.75c-0.721,0.9 -1.32,1.4 -1.32,1.4l-0.08,0.06l-0.36,2.221l0.49,-0.29c0.02,-0.021 3.85,-2.321 4.97,-7.011zm-30.02,8.97l3.15,-14.55c0.219,-1.38 0.609,-2.96 -2.351,-2.96l-8.94,0l-0.35,1.44l8.141,0c1.789,0 1.819,0.65 1.56,1.91l-3.16,14.51c-0.16,0.881 0.06,1.49 1.569,1.49c0.101,0 3.291,-0.04 3.601,-0.01l0.38,-1.439l-3.22,0c-0.28,0 -0.46,-0.051 -0.38,-0.391zm-12.58,-13.64l1.36,-0.69c0,0 -0.75,-0.91 -1.53,-2.15c-0.7,-1.17 -0.84,-1.54 -0.84,-1.54l-1.74,0c0,0 0.65,1.28 0.96,1.81c0.32,0.52 1.79,2.57 1.79,2.57zm11.939,4.31l-4.39,0l1.34,-5.92l-1.75,0l-1.35,5.94l-4.51,0l-0.38,1.48l4.52,0l-2.14,9.68l1.81,0l2.15,-9.729l4.32,0l0.38,-1.451zm-33.319,-6.7l-0.83,3.79l-2.47,0l0.84,-3.87c0.28,-0.26 1.16,-0.37 1.4,-0.37c0.23,0 1.15,0.09 1.06,0.45zm-2.1,9.53l-2.48,0l0.93,-4.3l2.47,0l-0.92,4.3zm1.8,-11.51c-0.41,0 -1.3,0.05 -1.72,0.27c-0.01,-0.07 0.02,-0.17 0.03,-0.25l-1.73,0l-3.97,17.69c-0.1,0.5 -0.26,0.61 -0.4,0.61l-0.84,0l-0.35,1.52l1.62,0c0.37,0 1.26,-0.25 1.56,-1.59l1.14,-5.15l2.52,0l-1.02,4.67c-0.06,0.29 -0.11,0.551 -0.31,0.551l-1.13,0l-0.33,1.52l1.45,0c0.33,0 1.51,0.14 1.86,-1.51l3.69,-16.601c0.31,-1.38 -1.06,-1.73 -2.07,-1.73zm11.53,7.56c0.06,0.33 0.64,1.33 0.86,1.52l-6.48,0c0.59,-0.43 1.18,-1.09 1.54,-1.52l4.08,0zm0.67,3.99l-0.29,1.42l-7.02,0l0.54,-2.38l6.07,0c0.98,0 0.75,0.7 0.7,0.96zm4.69,-11.42l-1.87,0c-0.83,1.06 -2.43,2.72 -3.42,3.13l-1.19,0c0.25,-0.4 1.62,-3.13 1.62,-3.13l-1.93,0l-1.6,3.06c-1.14,-0.76 -1.63,-2.03 -2.03,-3.06l-2.06,0c0.26,0.75 0.73,2.3 1.64,3.07l-2.85,0l-0.36,1.52l4.65,0c-0.3,0.46 -0.56,0.87 -0.97,1.31l-4.67,0l-0.36,1.46l3.72,0c-1.2,1.23 -2.85,2.18 -4.14,2.18l-0.37,1.64c0,0 1.99,-0.36 2.98,-0.85l-0.57,2.59c-0.18,0.78 0.03,1.351 0.82,1.351l7.81,0c0.62,0 0.79,0.439 0.64,1.079l-0.45,1.69c-0.23,0.82 -0.62,1.26 -1.32,1.26l-6.98,0l-0.48,1.391l7.16,0c1.62,0 2.78,-0.141 3.22,-1.931l0.87,-3.82c0.13,-0.56 -0.38,-1.02 -0.9,-1.02l0.49,-2.47c0.4,0.3 0.91,0.58 1.39,0.72l0.58,-1.17c-1.03,-0.49 -2.24,-1.56 -2.56,-2.63l2.99,0l0.37,-1.52l-8.01,0l0.82,-1.29l6.55,0l0.36,-1.48l-2.29,0c1.04,-0.9 1.92,-1.97 2.7,-3.08zm-5.51,15.7l-10.54,0l-0.36,1.209l10.54,0l0.36,-1.209zm8.32,2.4l2.24,-10.51c0.18,-0.87 -0.35,-1.76 -1.39,-1.76l-2.58,0l-0.35,1.48l2.02,0c0.44,0 0.54,0.29 0.46,0.64l-2.2,10.23c-0.26,1.21 0.43,1.56 1.74,1.56l2.96,0l0.41,-1.319l-3.01,0c-0.21,-0.001 -0.35,-0.102 -0.3,-0.321z"/>
  </symbol>
  <symbol id="graph_slogan">
   <path id="svg_13" d="m48.364,29.09l2.88,2.31l0.01,0.011l-0.01,0.01l-0.18,0.84l-0.33,-0.261l-2.52,-2.021l-0.03,-0.029l0.18,-0.86zm0,-2.021c-0.03,0.061 -0.04,0.101 -0.44,0.701l-1.52,7.06l-0.71,0l1.27,-5.851c-0.94,1.021 -2.4,2.211 -4.62,3.221l0.17,-0.801c3.78,-1.84 4.82,-3.799 5.07,-4.33l-4.25,0l0.16,-0.709l8.73,0l-0.15,0.709l-3.71,0zm21.83,5.75l-0.71,0l0.66,-3.069c0.03,-0.09 -0.05,-0.19 -0.15,-0.19l-5.01,0c-0.08,0 -0.14,0.051 -0.16,0.131l-0.67,3.129l-0.71,0l0.75,-3.469c0.07,-0.291 0.32,-0.5 0.62,-0.5l2.96,0l1.35,-1.131c0.05,-0.039 0.02,-0.14 -0.05,-0.14l-3.23,0c-0.75,0.64 -1.72,1.36 -2.83,1.989l0.18,-0.85c1.57,-0.97 2.79,-2.08 3.44,-2.72l0.89,0c-0.15,0.16 -0.45,0.47 -0.88,0.88l2.74,0c0.59,0 0.85,0.74 0.4,1.11l-1.02,0.86l1.5,0c0.4,0 0.7,0.379 0.62,0.77l-0.69,3.2zm-3.52,-0.09l-0.12,0.131c-1.02,1.1 -2.59,1.789 -4.66,2.06l0.16,-0.72c3.87,-0.53 4.68,-2.49 4.85,-3.311l0,-0.029l0.19,-0.881l0.71,0l-0.2,0.9c-0.09,0.471 -0.27,0.88 -0.48,1.221c0.67,0.39 2.97,1.56 3.84,2.14l-0.14,0.76c-0.85,-0.569 -3.5,-1.88 -4.15,-2.271zm17.68,-4.089l-1.029,0c-0.33,0.851 -0.951,2.101 -1.301,2.811c-0.01,0.029 -0.01,0.07 0.021,0.09l0.64,0.71c0.891,-1.22 1.57,-2.851 1.74,-3.51c0.018,-0.051 -0.021,-0.101 -0.071,-0.101zm0.89,-0.369c-0.01,0.049 -0.23,1.239 -0.95,2.64c-0.271,0.54 -0.82,1.38 -1.171,1.83l0.881,0.95l-0.26,0.869l-1.121,-1.209c-0.739,0.799 -1.359,1.08 -2.309,1.5l0.17,-0.801c0.789,-0.4 1.18,-0.59 1.709,-1.18l-0.97,-1.061c-0.04,-0.039 -0.05,-0.119 -0.021,-0.18l0.061,-0.109c0.359,-0.701 1,-1.99 1.35,-2.881l-1.17,0l0.36,-0.709l1.08,0c0.41,-1.061 0.7,-1.91 0.71,-1.931l0.7,0c-0.021,0.069 -0.3,0.89 -0.69,1.931l1.51,0c0.101,0 0.17,0.09 0.16,0.189l-0.029,0.152zm3.5,0.769c-0.021,0.01 -0.03,0.029 -0.03,0.05l-0.271,0.9l1.631,0l-0.15,0.7l-1.641,0l-0.84,2.949c-0.119,0.381 -0.25,1.141 -1.59,1.18l-1.34,0l0.15,-0.709l1.3,0c0.239,0 0.64,-0.021 0.78,-0.51l0.84,-2.91l-2.18,0l0.149,-0.7l2.181,0l0.33,-1.16c0.01,-0.04 0.029,-0.07 0.049,-0.09l1.5,-1.521c0.051,-0.039 0.021,-0.13 -0.049,-0.13l-3.381,0l0.15,-0.71l3.539,0c0.58,0 0.851,0.73 0.4,1.11l-1.527,1.551zm14.379,-1.43l-1.479,0c-0.069,0 -0.13,0.05 -0.149,0.119l-0.49,2.261l1.8,0l0.47,-2.19c0.029,-0.1 -0.051,-0.19 -0.152,-0.19zm-2.269,3.08l-0.539,2.51c-0.021,0.1 0.049,0.199 0.149,0.199l1.479,0c0.07,0 0.141,-0.06 0.15,-0.129l0.561,-2.58l-1.8,0zm1.849,3.039c-0.049,0.221 -0.239,0.371 -0.459,0.371l-2.25,0c-0.301,0 -0.521,-0.271 -0.461,-0.57l1.36,-6.26c0.04,-0.221 0.229,-0.371 0.46,-0.371l2.24,0c0.3,0 0.52,0.281 0.46,0.57l-1.35,6.26zm6.441,-5.019l-1.239,0l-1.051,4.92c-0.08,0.301 -0.23,1.189 -1.67,1.189l-1.439,0l0.16,-0.709l1.5,0c0.479,0 0.649,-0.24 0.75,-0.551l1.049,-4.85l-2.76,0.01l0.15,-0.71l2.76,-0.01l0.43,-2l0.711,0l-0.43,2l1.229,0l-0.15,0.711zm-3.191,2.8l-0.529,0.601l-1.09,-1.9l0.529,-0.59l1.09,1.889zm16.17,-2.281l-1.409,-1.959l0.489,-0.541l1.41,1.971l-0.479,0.52l-0.011,0.009zm6.221,0.761l-0.15,0.7l-2.979,0l-0.67,3.1c-0.04,0.22 0.021,0.32 0.29,0.32l1.26,0c0.62,0 0.74,-0.44 0.75,-0.521l0.25,-1.13l0.7,0l-0.271,1.25c-0.25,1.01 -1.05,1.109 -1.869,1.109l-1.121,0c-0.56,0 -0.819,-0.43 -0.699,-0.989l0.67,-3.14l-1.76,0c-0.09,0.369 -0.25,0.89 -0.57,1.459c-0.53,0.961 -1.6,2.221 -3.68,2.771l0.16,-0.739c1.319,-0.4 2.289,-1.16 2.91,-2.261c0.26,-0.479 0.399,-0.92 0.479,-1.229l-2.64,0l0.16,-0.7l3.979,0l0.81,-3.99l0.7,0l-0.8,3.99l4.091,0zm-2.651,-1.16l2.16,-2.101l0.45,0.44l-2.16,2.11l-0.45,-0.449z"/>
  </symbol>
 </defs>
 <g>
  <title>background</title>
  <rect fill="none" id="canvas_background" height="402" width="582" y="-1" x="-1"/>
 </g>
 <g>
  <title>Layer 1</title>
  <g opacity="0" id="svg_2">
   <svg viewBox="0 0 158 36" height="36" width="158" y="0" x="0" id="svg_1">
    <use id="svg_14" y="0" x="0" fill="url(#gradient_blue)" class="graph_blue" xlink:href="#graph_blue"/>
    <use id="svg_15" y="0" x="0" fill="url(#gradient_orange)" class="graph_orange" xlink:href="#graph_orange"/>
    <use id="svg_16" y="0" x="0" fill="url(#gradient_green)" class="graph_green" xlink:href="#graph_green"/>
    <use id="svg_17" y="0" x="0" fill="#fff" class="graph_white" xlink:href="#graph_white"/>
    <use id="svg_18" y="0" x="0" fill="#fff" class="graph_text" xlink:href="#graph_text_small"/>
    <use id="svg_19" y="0" x="0" fill="#fff" class="graph_text" xlink:href="#graph_slogan"/>
   </svg>
  </g>
  <g opacity="0" id="svg_4">
   <svg viewBox="0 0 158 36" height="36" width="158" y="36" x="0" id="svg_3">
    <use id="svg_20" y="0" x="0" fill="url(#gradient_blue)" class="graph_blue" xlink:href="#graph_blue"/>
    <use id="svg_21" y="0" x="0" fill="url(#gradient_orange)" class="graph_orange" xlink:href="#graph_orange"/>
    <use id="svg_22" y="0" x="0" fill="url(#gradient_green)" class="graph_green" xlink:href="#graph_green"/>
    <use id="svg_23" y="0" x="0" fill="#fff" class="graph_white" xlink:href="#graph_white"/>
    <use id="svg_24" y="0" x="0" fill="#414347" class="graph_text" xlink:href="#graph_text_small"/>
    <use id="svg_25" y="0" x="0" fill="#414347" class="graph_text" xlink:href="#graph_slogan"/>
   </svg>
  </g>
  <g opacity="0" id="svg_6">
   <svg viewBox="0 0 186 69" height="69" width="186" y="72" x="0" id="svg_5">
    <ellipse id="svg_26" opacity="0.502" ry="8.131" rx="8.181" cy="18.372" cx="8.181" fill="#FF920B"/>
    <ellipse id="svg_27" opacity="0.502" ry="3.278" rx="3.321" cy="54.725" cx="15.247" fill="#70DF00"/>
    <ellipse id="svg_28" opacity="0.502" ry="2.086" rx="2.113" cy="66.914" cx="65.942" fill="#70DF00"/>
    <ellipse id="svg_29" opacity="0.502" ry="2.086" rx="2.113" cy="56.1" cx="101.217" fill="#FF920B"/>
    <ellipse id="svg_30" opacity="0.502" ry="3.278" rx="3.32" cy="65.164" cx="137.789" fill="#44BFFB"/>
    <ellipse id="svg_31" opacity="0.502" ry="2.086" rx="2.113" cy="11.945" cx="101.874" fill="#44BFFB"/>
    <ellipse id="svg_32" opacity="0.502" ry="6.408" rx="6.49" cy="6.408" cx="179.51" fill="#44BFFB"/>
   </svg>
  </g>
 </g>
</svg>